<?xml version="1.0" encoding="UTF-8" standalone="no"?>
<!-- Generator: Adobe Illustrator 15.1.0, SVG Export Plug-In . SVG Version: 6.00 Build 0)  -->

<svg
   xmlns:dc="http://purl.org/dc/elements/1.1/"
   xmlns:cc="http://creativecommons.org/ns#"
   xmlns:rdf="http://www.w3.org/1999/02/22-rdf-syntax-ns#"
   xmlns:svg="http://www.w3.org/2000/svg"
   xmlns="http://www.w3.org/2000/svg"
   xmlns:sodipodi="http://sodipodi.sourceforge.net/DTD/sodipodi-0.dtd"
   xmlns:inkscape="http://www.inkscape.org/namespaces/inkscape"
   version="1.1"
   id="Layer_1"
   x="0px"
   y="0px"
   width="220"
   height="220"
   viewBox="0 0 220 220"
   enable-background="new 0 0 100 100"
   xml:space="preserve"
   inkscape:version="0.48.2 r9819"
   sodipodi:docname="source.svg"
   inkscape:export-filename="/Users/ryan/garden/garden-assets/general/16x16.png"
   inkscape:export-xdpi="6.5500002"
   inkscape:export-ydpi="6.5500002"><metadata
   id="metadata23"><rdf:RDF><cc:Work
       rdf:about=""><dc:format>image/svg+xml</dc:format><dc:type
         rdf:resource="http://purl.org/dc/dcmitype/StillImage" /><dc:title></dc:title></cc:Work></rdf:RDF></metadata><defs
   id="defs21" /><sodipodi:namedview
   pagecolor="#ffffff"
   bordercolor="#666666"
   borderopacity="1"
   objecttolerance="10"
   gridtolerance="10"
   guidetolerance="10"
   inkscape:pageopacity="0"
   inkscape:pageshadow="2"
   inkscape:window-width="1444"
   inkscape:window-height="860"
   id="namedview19"
   showgrid="false"
   inkscape:zoom="2.36"
   inkscape:cx="105.71389"
   inkscape:cy="108.21179"
   inkscape:window-x="0"
   inkscape:window-y="0"
   inkscape:window-maximized="0"
   inkscape:current-layer="Layer_1" />





<path
   d="m 55.190234,163.12881 0.94197,1.16963 c -0.27474,-0.43675 -0.56019,-0.82912 -0.94197,-1.16963 z"
   id="path13"
   inkscape:connector-curvature="0" />
<path
   d="m 49.449224,162.71797 1.01333,-0.533 c -0.36752,0.12958 -0.68864,0.3183 -1.01333,0.533 z"
   id="path15"
   inkscape:connector-curvature="0" />
<path
   d="m 204.4693,179.3017 -26.17188,-13.447 -1.02296,-0.533 c -0.50067,-0.17396 -1.01575,-0.32202 -1.57046,-0.32202 -1.23905,0 -2.32686,0.5071 -3.20574,1.26588 l -0.95452,1.16961 -30.09606,24.68856 -14.22386,4.71329 c -4.78198,-1.38622 -3.08964,1.70442 -23.17898,-0.27358 l -12.065392,-1.94075 -34.68998,-27.18383 -0.950919,-1.16962 c -0.878881,-0.75877 -1.963064,-1.26587 -3.202145,-1.26587 -0.554701,0 -1.069778,0.14792 -1.574054,0.32201 l -1.022957,0.533 -26.168265,13.44332 -90.049094,0 0,41.12203 180.098186,0 180.09815,0 0,-41.12203 z"
   id="path17"
   inkscape:connector-curvature="0"
   sodipodi:nodetypes="cccsccccccccsccccccccc" />
<path
   style="color:#000000;fill:#000005;fill-opacity:1;fill-rule:nonzero;stroke:none;stroke-width:2;marker:none;visibility:visible;display:inline;overflow:visible;enable-background:accumulate"
   d="m 90.621264,61.699901 c -1.52501,0 -1.80833,4.578717 -1.80833,8.182106 l 0,16.364178 c 0,16.619415 9.04164,25.057605 21.097136,24.546215 l -3.01388,65.45666 c -6.02776,-16.36418 -18.083256,-32.72832 -36.166506,-24.54625 0,0 12.05549,40.9104 42.194266,40.9104 30.13881,0 42.19429,-40.9104 42.19429,-40.9104 -18.08325,-8.18207 -30.13876,8.18207 -36.16652,24.54625 l -3.01389,-65.45666 c 12.05552,0.5073 21.09716,-7.9268 21.09716,-24.546215 l 0,-16.364178 c 0,-3.603389 -0.28208,-8.182106 -1.80832,-8.182106 -1.16286,0 -2.56548,1.845896 -4.21944,4.091053 l -9.04163,12.273125 c 0,0 -4.34914,-8.842365 -6.02777,-12.273125 -0.786,-1.606136 -1.48859,-4.091053 -3.01388,-4.091053 -1.52531,0 -2.22784,2.484917 -3.01388,4.091053 -1.6786,3.43076 -6.02776,12.273125 -6.02776,12.273125 L 94.840694,65.790954 c -1.65396,-2.245157 -3.05654,-4.091053 -4.21943,-4.091053 z"
   id="path6080-4"
   inkscape:connector-curvature="0"
   sodipodi:nodetypes="ssscccscccsssscssscss" /></svg>